<svg id="visual" viewBox="0 0 900 600" xmlns="http://www.w3.org/2000/svg" xmlns:xlink="http://www.w3.org/1999/xlink" version="1.1"><rect x="0" y="0" width="900" height="600" fill="#ffffff"></rect><defs><linearGradient id="grad1_0" x1="33.3%" y1="0%" x2="100%" y2="100%"><stop offset="20%" stop-color="#ffffff" stop-opacity="1"></stop><stop offset="80%" stop-color="#ffffff" stop-opacity="1"></stop></linearGradient></defs><defs><linearGradient id="grad2_0" x1="0%" y1="0%" x2="66.7%" y2="100%"><stop offset="20%" stop-color="#ffffff" stop-opacity="1"></stop><stop offset="80%" stop-color="#ffffff" stop-opacity="1"></stop></linearGradient></defs><g transform="translate(900, 0)"><path d="M0 270.4C-24.4 250.1 -48.8 229.8 -70.1 215.9C-91.5 202 -109.8 194.6 -137 188.5C-164.1 182.4 -200.1 177.5 -218.8 158.9C-237.4 140.4 -238.7 108.2 -244.4 79.4C-250.1 50.6 -260.3 25.3 -270.4 0L0 0Z" fill="#613A3A"></path></g><g transform="translate(0, 600)"><path d="M0 -270.4C23.4 -251.6 46.8 -232.8 72.9 -224.4C99 -216.1 127.8 -218.2 151.1 -207.9C174.3 -197.6 192.2 -175 210.3 -152.8C228.5 -130.7 247.1 -109 257.2 -83.6C267.3 -58.2 268.8 -29.1 270.4 0L0 0Z" fill="#613A3A"></path></g></svg>